<svg width="13" height="17" fill="none" xmlns="http://www.w3.org/2000/svg"><path fill-rule="evenodd" clip-rule="evenodd" d="M.408 10.916c0 1.657 2.687 3 6 3s6-1.343 6-3c0-.612-.371-1.18-1-1.654V7.916a5.002 5.002 0 0 0-3.041-4.6 2 2 0 0 0-3.508-1.664 2 2 0 0 0-.41 1.664 5 5 0 0 0-3.041 4.6v1.346c-.63.474-1 1.042-1 1.654zm7.984 3.84c-.632.094-1.29.16-1.984.16s-1.351-.066-1.984-.16a1.025 1.025 0 0 1-.008.064c-.004.032-.008.063-.008.096a2 2 0 0 0 4 0c0-.033-.005-.064-.009-.096a1.025 1.025 0 0 1-.007-.064z" fill="#EDD556"/></svg>